<?xml version="1.0" encoding="UTF-8"?>
<svg width="796px" height="444px" viewBox="0 0 796 444" version="1.1" xmlns="http://www.w3.org/2000/svg" xmlns:xlink="http://www.w3.org/1999/xlink">
    <!-- Generator: Sketch 61.2 (89653) - https://sketch.com -->
    <title>business-art</title>
    <desc>Created with Sketch.</desc>
    <defs>
        <path d="M64.2837741,9.00223088 L50.7026447,8.98725212 C49.2087205,8.98725212 48,10.3353399 48,11.9830028 L48,38.9447592 C48,40.5924221 49.2087205,41.9405099 50.7026447,41.9405099 L64.2837741,41.9405099 C65.7776984,41.9405099 67,40.5924221 67,38.9447592 L67,11.9830028 C67,10.3353399 65.7776984,9.00223088 64.2837741,9.00223088 Z M64.2837741,35.9490085 L50.7026447,35.9490085 L50.7026447,14.9787535 L64.2837741,14.9787535 L64.2837741,35.9490085 Z M58.5796998,27.291289 L58.5796998,29.9125708 L62.9256612,25.4339235 L58.5796998,20.970255 L58.5796998,23.5166431 C54.3559685,24.1607295 52.6719085,27.351204 52.0607577,30.5566572 C53.568263,28.3098442 55.5646891,27.291289 58.5796998,27.291289 Z" id="path-1"></path>
    </defs>
    <g id="WP-Voile-Ads-Plugin" stroke="none" stroke-width="1" fill="none" fill-rule="evenodd" opacity="0.33858817">
        <g id="Artboard" transform="translate(-582.000000, -5034.000000)">
            <g id="business-art" transform="translate(519.000000, 5033.000000)">
                <g id="A-Human/Sitting" transform="translate(0.000000, 83.888102)" stroke-linecap="square" stroke-width="2">
                    <g id="Head/Front/Rad" transform="translate(82.000000, 0.000000)">
                        <path d="M63.5,63.4100567 C63,66.9050992 56.5,75.9297688 53,70.4001416 C49.5,64.8705145 59,65.9439331 52.5,65.4072238 C46,64.8705145 51,61.4128895 48.5,61.9121813 C46,62.4114731 42,59.4157224 40,55.9206799 C38,52.4256374 42,51.9702636 40.747318,50.927762 C39.494636,49.8852605 36.7054119,46.392141 37.5563967,43.4383853 C38.4073815,40.4846296 42.5,39.444051 44.5,38.9447592 C46.5,38.4454674 39.2220207,30.9560907 44.0945029,25.463881 C48.966985,19.9716714 54.5874745,28.4596317 55,25.463881 C55.4125255,22.4681303 54.9249077,18.6054759 59.5,16.6672769 C64.0750923,14.7290779 71.0112076,18.9730878 71.5,18.473796 C71.9887924,17.9745042 73.9791157,14.3426683 78,14.9920771 C80.6805896,15.4250163 83.1805896,17.1580337 85.5,20.1911294 C88.7764008,18.3211775 91.2764008,17.4636779 93,17.6186307 C95.5853988,17.8510598 92,27.7824712 93,27.7824712 C94,27.7824712 95.7293543,26.9981508 97.1507245,27.7824712 C98.5720946,28.5667917 97.4102114,29.9220492 98.7513325,30.9560907 C100.092454,31.9901321 103.153843,29.0005155 102.561948,31.9546742 C102.167352,33.9241133 100.36361,36.2541417 97.1507245,38.9447592 C98.6045199,41.4127749 98.3915162,43.2435115 96.5117134,44.4369688 C95.7898981,44.8952381 94.7209142,44.2690587 94.2967826,44.4369688 C93.0640837,44.9249839 92.9391186,45.2552705 88.5,44.4369688 C82.533525,43.3371162 85,38.9447592 82.5,40.4426346 C80,41.9405099 79.6947923,41.4412181 77.6375379,40.4426346 C75.5802835,39.444051 76.5,44.4369688 75.5,45.4355524 C74.5,46.434136 62,45.9348442 59,45.9348442 C56,45.9348442 76.5,46.8895098 74,49.4298867 C71.5,51.9702636 71.5,51.9702636 70.0591724,53.7891858 C68.6183449,55.608108 65.5,50.0635054 61.5,52.9249292 C58.8333333,54.832545 58.1666667,57.4954345 59.5,60.9135977" id="Line-38" stroke="#4C4B46"></path>
                        <path d="M61,58.9164306 C59.3996851,59.9926671 63.5,61.4128895 64.5,62.4114731 C65.5,63.4100567 54.8841636,99.8583569 54,103.852691 C53.1158364,107.847025 77.6375379,104.351983 78,103.353399 C78.3624621,102.354816 73,74.8937677 74,74.8937677 C75,74.8937677 82.5467532,82.8824363 90.6490429,79.8866856 C98.7513325,76.8909348 94.7174801,50.1606166 94.5607353,46.9334278 C94.4039906,43.7062389 91.6818182,47.9320113 89,45.9348442" id="Line" stroke-opacity="0.719089674" stroke="#706B62"></path>
                    </g>
                    <g id="Bottom/Sitting/Skinny-Jeans-1" transform="translate(0.000000, 186.735127)">
                        <g id="Objects/Seat/Cube" transform="translate(10.000000, 41.940510)" stroke="#4C4B46">
                            <path d="M55,120.32932 C70,40.1097734 79.5,4.25721781e-14 83.5,4.25721781e-14 C89.5,4.25721781e-14 99,4.25721781e-14 106,4.25721781e-14 C113,4.25721781e-14 125.5,123.824363 120,123.824363 C114.642879,123.824363 90,114.83711 67,120.32932 C44,125.82153 142.5,119.830028 169.5,123.824363 C196.5,127.818697 166.5,4.25721781e-14 160.5,4.25721781e-14 C156.5,4.25721781e-14 141.666667,4.25721781e-14 116,4.25721781e-14" id="Line"></path>
                        </g>
                        <path d="M195.5,115.336402 C191.5,123.657932 189.692191,128.317989 190.076573,129.316572 C190.653146,130.814448 200.11837,135.807365 201.5,134.808782 C202.88163,133.810198 211,121.308731 210,120.319734 C209.333333,119.660402 205.333333,118.665014 198,117.333569" id="Line-14" stroke-opacity="0.719089674" stroke="#706B62"></path>
                        <path d="M246.5,132.811615 C247.833333,145.793201 248.166667,153.9483 247.5,157.276912 C246.833333,160.605524 249.666667,161.437677 256,159.773371 C258.666667,158.441926 260,157.776204 260,157.776204 C260,157.776204 261,150.120397 263,134.808782" id="Line" stroke-opacity="0.719089674" stroke="#706B62"></path>
                        <g id="Accessories/Shoe/Flat-Sneaker" transform="translate(215.500000, 132.811615) rotate(30.000000) translate(-215.500000, -132.811615) translate(185.000000, 112.839943)" stroke="#0098FF">
                            <path d="M1.5,39.444051 C1.13389657,35.7922927 1.13389657,32.796542 1.5,30.4567989 C2.04915514,26.9471841 2.09712764,24.1317759 4,23.4667139 C5.90287236,22.8016519 8.10403242,26.6335798 11.5,26.9617564 C14.8959676,27.2899329 16.5053582,27.0578693 19.5,24.9645892 C22.4946418,22.8713092 15,18.473796 21.5,19.9716714 C28,21.4695467 39.0867577,28.5575429 44.5,30.4567989 C49.9132423,32.3560549 52.9835576,30.4474165 56.5,32.453966 C60.0164424,34.4605155 60,36.9475921 58.5,38.4454674 C57.5,39.444051 39.6666667,39.7769122 5,39.444051" id="Line"></path>
                        </g>
                        <g id="Accessories/Shoe/Flat-Sneaker" transform="translate(242.000000, 125.821530)" stroke="#0098FF">
                            <path d="M1.5,39.444051 C1.13389657,35.7922927 1.13389657,32.796542 1.5,30.4567989 C2.04915514,26.9471841 2.09712764,24.1317759 4,23.4667139 C5.90287236,22.8016519 8.10403242,26.6335798 11.5,26.9617564 C14.8959676,27.2899329 16.5053582,27.0578693 19.5,24.9645892 C22.4946418,22.8713092 15,18.473796 21.5,19.9716714 C28,21.4695467 39.0867577,28.5575429 44.5,30.4567989 C49.9132423,32.3560549 52.9835576,30.4474165 56.5,32.453966 C60.0164424,34.4605155 60,36.9475921 58.5,38.4454674 C57.5,39.444051 39.6666667,39.7769122 5,39.444051" id="Line"></path>
                        </g>
                        <path d="M118.5,-1.4190726e-14 L176.5,-1.4190726e-14 C229.833333,9.98583569 261.833333,16.3101983 272.5,18.9730878 C275.853372,19.8102433 280.809224,24.3405364 281.889416,31.9546742 C283.411128,42.6810321 277.93381,80.0762278 274,105.350567 C271.843867,119.203505 271.150568,128.755224 270,129.815864 C266.75025,132.811615 245,129.815864 243,129.815864 C241,129.815864 252.76878,58.5417046 249.5,48.9305949 C248.6672,46.4819346 247,46.434136 239.5,46.434136 C232,46.434136 219.658005,46.1734323 217.5,50.927762 C211.224831,64.7526699 202.358094,85.7229249 190.899789,113.838527 C206.29993,114.171388 214.666667,116.33179 216,120.319734 C216.762375,122.599965 217.736785,115.940903 225,103.852691 C231,93.8668555 243.531381,70.5086646 245.41324,64.907932 C247.295098,59.3071994 246,55.9206799 242,53.2577904 C238,50.5949008 227.036741,48.6524866 216,47.4327195 C180.537149,43.5134088 163.68735,62.0142445 140,53.2577904 C124.208434,47.4201543 114.8751,32.6633082 112,8.98725212" id="Line-15" stroke="#706B62"></path>
                    </g>
                    <g id="Body/Pointing-Forward" transform="translate(22.000000, 81.883853)" stroke="#706B62">
                        <path d="M114.5,1.2057022e-13 C103.359011,16.1325587 100.652032,25.3029503 96.5,38.4454674 C94.4593844,44.904672 91.6018081,51.0820535 91,57.4185552 C90.3773116,63.9749077 92.0136781,70.7064243 90,78.3888102 C86.0401674,93.4959727 78.9639412,101.208041 77,112.839943 C75.0360588,124.471845 77.4280987,141.798867 82.7913029,139.8017 C88.1545072,137.804533 132.80683,150.873698 149.859581,143.796034 C166.912332,136.71837 166.043947,122.825779 167,104.851275 C167.350387,98.2637335 173.021386,105.919972 186.271339,102.354816 C197.123584,99.4348092 232.778782,89.3732295 232.93731,83.9034539 C233.095838,78.4336783 225.5,46.434136 221.182939,51.4270538 C218.791569,54.192804 203.376629,59.1102528 175.5,62.9107649 C169.883046,63.6765426 164.5,65.4072238 158,61.4128895 C151.5,57.4185552 146.274469,34.1714936 145.021812,31.9546742 C143.769155,29.7378549 126.420442,41.4746198 145.021812,38.4454674 C163.623182,35.416315 182.042678,28.9589235 186.271339,25.9631728 C190.5,22.9674221 195.676352,41.9405099 193.838176,41.9405099 C192,41.9405099 177.26505,52.9314306 171.080937,55.9206799 C155.904346,63.2566732 149.394866,63.0723135 152,60.4143059 C155.287277,57.0603113 152.322752,43.1936029 145.021812,13.4808782 C144.179199,10.0516831 143.240115,2.99575071 143.240115,2.08721929e-13 C143.240115,-1.99716714 136.510099,-1.99716714 123.050068,2.08721929e-13" id="Line-9" fill="#FFFFFF" fill-rule="evenodd"></path>
                        <path d="M227,50.9485036 C230,52.6128095 231.5,51.6142259 231.5,47.9527529 C231.5,42.4605432 234,37.4676254 237.5,36.9683336 C241,36.4690418 232.481458,45.1419221 239,45.9555857 C245.518542,46.7692493 254.722781,36.5436071 257.5,39.4647925 C260.277219,42.3859779 255.147963,51.4906192 249.443068,56.940005 C245.639804,60.5729288 239.992115,62.7079597 232.5,63.3450977" id="Line" stroke-opacity="0.719089674"></path>
                        <path d="M196.5,33.9518417 C197.833333,30.2903687 199.166667,28.9589239 200.5,29.9575075 C202.5,31.4553828 214.676169,27.2365612 215.91115,26.462465 C217.146131,25.6883687 215.9459,23.4667143 214.22295,22.9674225 C212.5,22.4681307 209,29.5679629 209,23.4667143 C209,17.3654657 218.562745,6.64379818 214.22295,6.49079359 C209.883155,6.33778899 198.530609,20.1283842 197,21.4695471 C195.469391,22.81071 192.812838,23.9464674 192.5,25.4638814 C192.187162,26.9812954 194.5,25.9631732 194.5,28.4596321" id="Line-2" stroke-opacity="0.719089674"></path>
                    </g>
                </g>
                <g id="A-Human/Sitting" transform="translate(735.000000, 260.138102) scale(-1, 1) translate(-735.000000, -260.138102) translate(585.000000, 83.888102)" stroke-linecap="square" stroke-width="2">
                    <g id="Head/Front/Long" transform="translate(82.000000, 0.000000)" stroke="#706B62" stroke-opacity="0.719089674">
                        <path d="M37,88.3746459 C48.9349273,89.7308069 57.7682606,90.4088874 63.5,90.4088874 C72.0976091,90.4088874 69.6933332,66.9597841 69.4965842,61.9121813 C69.3915899,59.2185507 67.0879074,62.0321211 65,60.4143059 C63.1753712,59.0004922 64.719218,53.0740483 65.2368094,51.9263456 C66.3466763,49.4653363 67.2396497,54.7837236 74,51.9263456 C80.7603503,49.0689676 72.8509571,54.4228045 86.5,42.9390935 C100.149043,31.4553824 95.0824464,72.3996471 93,77.8895184 C91.6117024,81.5494326 85.2783691,80.8837103 74,75.8923513 C74.6666667,82.5495751 75.8677641,87.3884204 77.6032923,90.4088874 C80.2065845,94.9395878 85.0640924,90.4088874 96.1286084,90.4088874 C107.193124,90.4088874 99.8907504,54.9220963 96.1286084,43.9376771 C92.3664664,32.9532578 79.5879303,21.3030619 65,28.4596317 C57.5206251,32.1288752 50.679571,40.9419267 51.8027865,54.9220963 C52.9260019,68.9022659 45.9976133,65.1893074 44.0945029,66.4058074 C40.1890058,68.9022663 38.546426,73.1008556 37,77.8895184 C35.453574,82.6781812 39.3318727,81.8838527 40,81.8838527 C40.6681273,81.8838527 41.5347851,80.3416964 40,77.8895184 C38.9768099,76.2547331 37.3101432,74.9232883 35,73.8951841" id="Line-32"></path>
                        <path d="M75,92.868272 C78.1298615,95.1983003 78.4741612,98.3604816 76.0328991,102.354816 C73.5916369,106.34915 66.5806706,106.34915 55,102.354816 C53.9971983,98.4690222 54.8226677,95.3068409 57.4764084,92.868272 C61.4570193,89.2104186 64.9352609,100.368512 69.5,90.4088874 C72.5431594,83.7691378 73.2702704,73.4380828 71.6813329,59.4157224" id="Line"></path>
                    </g>
                    <g id="Bottom/Sitting/Baggy-Pants" transform="translate(0.000000, 186.735127)">
                        <path d="M288,147.291076 C292,149.288244 294.5,155.279745 296.5,157.771199 C298.5,160.262653 308,155.279745 308,151.285411 C308,149.899314 306.083779,147.581876 305,145.293909 C304.334457,143.88888 303.334457,141.558852 302,138.303824" id="Left-Ankle" stroke-opacity="0.719089674" stroke="#706B62"></path>
                        <path d="M115.5,41.9405099 C113,38.9447592 55,39.9433428 52.5,41.9405099 C50,43.9376771 40.0050506,164.440221 62.5025253,164.440221 C85,164.440221 143.250384,181.058014 143.250384,152.457218 C143.250384,133.390021 156.833589,105.249371 184,68.0352687" id="Seat" stroke="#4C4B46"></path>
                        <path d="M173,118.831445 C168.310249,123.291548 165,128.81728 164.5,129.316572 C164,129.815864 167.507715,133.512095 170.5,135.308074 C173.492285,137.104053 175.913775,139.429644 177.5,137.119213 C179.086225,134.808782 187.855875,130.814448 187,129.316572 C186.429417,128.317989 182.681201,125.655099 175.755351,121.327904" id="Right-Ankle" stroke-opacity="0.719089674" stroke="#706B62"></path>
                        <g id="Accessories/Shoe/Flat-Simple" transform="translate(288.000000, 131.813031)" stroke="#0098FF">
                            <path d="M52.5,21.9497043 C49.1853309,24.6943843 47.3519976,26.1922597 47,26.4433304 C46.4720037,26.8199365 43.5,19.9525372 49,24.4461633 C54.5,28.9397893 47,33.4142812 49.5,34.431999 C52,35.4497167 54.1380865,30.1285358 54,29.4390811 C53.8619135,28.7496264 48.6657055,28.2807855 48.5,29.4390811 C48.3342945,30.5973768 59.5,33.4525496 60,34.9504249 C60.5,36.4483003 60,39.444051 59,39.9433428 C58,40.4426346 2,41.4412181 2,39.444051 C2,37.4468839 -0.5,37.9461756 0.5,36.4483003 C1.5,34.9504249 0.22542243,19.9716714 2.5,20.970255 C4.77457757,21.9688385 23,22.4681303 23,18.9730878 C23,17.3883803 25.9821496,25.0006739 34,28.9589235 C36.513974,30.2000213 40.013974,30.4467245 44.5,29.6990329" id="Line"></path>
                        </g>
                        <g id="Accessories/Shoe/Flat-Simple" transform="translate(189.500000, 139.801700) rotate(30.000000) translate(-189.500000, -139.801700) translate(159.000000, 119.830028)" stroke="#0098FF">
                            <path d="M52.5,21.9497043 C49.1853309,24.6943843 47.3519976,26.1922597 47,26.4433304 C46.4720037,26.8199365 43.5,19.9525372 49,24.4461633 C54.5,28.9397893 47,33.4142812 49.5,34.431999 C52,35.4497167 54.1380865,30.1285358 54,29.4390811 C53.8619135,28.7496264 48.6657055,28.2807855 48.5,29.4390811 C48.3342945,30.5973768 59.5,33.4525496 60,34.9504249 C60.5,36.4483003 60,39.444051 59,39.9433428 C58,40.4426346 2,41.4412181 2,39.444051 C2,37.4468839 -0.5,37.9461756 0.5,36.4483003 C1.5,34.9504249 0.22542243,19.9716714 2.5,20.970255 C4.77457757,21.9688385 23,22.4681303 23,18.9730878 C23,17.3883803 25.9821496,25.0006739 34,28.9589235 C36.513974,30.2000213 40.013974,30.4467245 44.5,29.6990329" id="Line"></path>
                        </g>
                        <path d="M171.5,1.4190726e-14 C227.40665,22.9674221 257.40665,36.2818697 261.5,39.9433428 C262.71534,41.0304558 265.110603,44.1919341 266.75025,49.4298867 C267.230468,50.9639729 265.629788,56.2170904 266.75025,57.917847 C273,67.4043909 276.619466,81.501788 289.5,101.855524 C300.202643,118.767772 308.100986,133.989746 304,134.808782 C294,136.805949 275.730264,152.776667 260,153.133817 C253.707359,153.276478 226.671589,51.9263456 263,56.9192635 C269.504027,57.8131663 221,139.8017 216,141.798867 C211,143.796034 170.5,114.83711 171.5,113.838527 C172.5,112.839943 209.551139,69.4015581 210.551139,65.9065156 C211.551139,62.4114731 145.053865,62.2120198 126,48.9305949 C113.297423,40.0763116 109.96409,23.7661133 116,1.4190726e-14" id="Line-4" stroke="#706B62"></path>
                    </g>
                    <g id="Body/Lab-Coat" transform="translate(22.000000, 81.883853)" stroke="#706B62">
                        <path d="M30.5,133.310907 C31,134.824414 31,136.805949 26.5,142.800434 C22,148.794918 7.52546822,153.360667 5.5,156.029238 C3.47453178,158.69781 8,163.796846 14,162.769122 C20,161.741398 28.7394234,156.870171 34,157.276912 C36.3448782,157.458215 36.2868091,161.038217 38,163.268414 C38.8490949,164.373748 42.4016357,165.764873 42.4016357,164.965101 C42.4016357,164.16533 37.5,151.611694 37.5,147.790368 C37.5,145.242818 39.1338786,143.245651 42.4016357,141.798867" id="Line" stroke-opacity="0.719089674"></path>
                        <path d="M209.5,116.334986 C212.5,111.84136 219,109.344901 218,107.347734 C217,105.350567 209.136987,107.167004 219.739446,113.838527 C223.493919,116.201003 227.94789,117.171444 231.5,118.831445 C237.978885,121.85921 242.709841,124.74519 243.584459,125.322238 C244.938594,126.215657 246.45709,126.638331 240,127.205858 C233.54291,127.773384 228.96604,125.810489 226.542229,126.820113 C224.118418,127.829738 226.084459,131.813031 226.542229,132.811615 C227,133.810198 226.845822,136.332604 222.5,131.813031 C218.154178,127.293458 213.175657,119.330737 211,119.330737" id="Line-2" stroke-opacity="0.719089674"></path>
                        <path d="M29.5,130.315156 C41.0373145,95.6472144 53.3706478,68.4348391 66.5,48.6780299 C79.6293522,28.9212206 96.8119362,12.3623495 118.047752,-0.998583569 C122.740177,-1.60251628 125.724259,-1.26965509 127,3.10862447e-15 C128.913611,1.90448264 128.123753,6.88009865 127,7.91096008 C125.876247,8.94182151 118.0125,6.864781 122.101453,4.49362606 C126.190405,2.12247112 134.5,4.49362606 138.059083,1.49787535 C141.618166,-1.49787535 160.024979,45.5327471 174,65.0031484 C187.975021,84.4735497 216,101.47195 213,105.907717 C210,110.343484 210,110.343484 204,120.828612 C202.008642,124.308552 187.679537,111.36301 182.598412,108.845609 C171.558615,103.376033 158.612556,97.8424493 156.589234,96.9850438 C153.156452,95.5303636 165.543947,110.842776 164.5,101.356232 C163.456053,91.8696884 143.562925,40.0857737 142,32.9532578 C138.987587,19.2059047 139.314999,11.1467087 138.059083,9.0649606 C135.1978,4.3222337 129.5,13.0070331 127.569134,21.9688385 C126.317095,27.7799787 129.225338,68.4470978 133.5,105.350567 C135.002905,118.325259 161.583419,105.907717 166.043947,108.845609 C170.504476,111.783501 130.57956,115.050319 128,115.336402 C125.42044,115.622485 127.569134,104.851275 135.297002,112.255561 C143.024871,119.659848 134.003859,110.540891 141,155.779037 C147.996141,201.017183 159.373959,217.996989 152.5,215.553092 C135,209.331321 49.1686925,221.186261 51.5,213.696884 C52.5353969,210.370648 51.9166338,196.653769 55,179.745042 C58.8591643,158.581954 66.7353359,132.638973 70.5,118.332153 C77.2725274,92.5945776 88,71.8028006 88,68.4029745 C88,65.0031484 75.9179655,77.0726856 64.5,96.9850438 C53.0820345,116.897402 48,140.271822 46.5,140.776889 C45,141.281957 39,136.805949 35.127877,136.805949" id="Line-7" fill="#FFFFFF" fill-rule="evenodd"></path>
                    </g>
                </g>
                <g id="Laptop" transform="translate(518.000000, 178.753541)" stroke="#4C4B46" stroke-linecap="square">
                    <path d="M0.409249931,20.0442035 C-0.5911022,70.2483766 0.846903988,96.3495512 4.7232685,98.3477272 C10.5378153,101.344991 81.0626405,77.3668788 89.5031116,70.8103636 C97.9435827,64.2538485 98.8176404,0 82.7507347,0 C66.6838291,0 6.22379669,5.80719913 6.22379669,16.4849524 C6.22379669,27.1627056 8.09945694,80.9261298 10.5378153,88.044632 C12.9761736,95.1631342 70.7465091,67.8130995 80.1248104,65.9398095 C89.5031116,64.0665195 123.452562,74.1822857 128.891977,82.7994199 C134.331391,91.4165541 32.1148541,126.782883 22.5420408,128.695026 C12.9692276,130.607169 7.24521376,109.52471 10.5378153,104.904242 C12.7328829,101.823931 40.9303086,91.8330506 95.1300923,74.9316017" id="Line-6" stroke-width="2"></path>
                    <path d="M95.0693294,76.8909348 C107.757409,81.977659 114.101449,85.2033866 114.101449,86.5681174 C114.101449,88.6152138 100.722434,96.4313997 95.0693294,94.9426024 C89.4162244,93.453805 87.720293,83.2183235 78.4868882,84.5210211 C69.2534835,85.8237188 66.4269311,88.8013134 60.3969525,93.453805 C54.3669739,98.1062967 69.7597309,101.237426 67.7459889,106.294682 C65.7322468,111.351938 58.5125842,111.505473 51.7269278,115.227466 C44.9412713,118.949459 40.7995221,101.64219 37.0307855,101.64219 C33.2620488,101.64219 32.1314279,104.061486 27.6089439,106.294682 C24.5939546,107.783479 26.1014493,111.629539 32.1314279,117.832861" id="Line-8"></path>
                    <line x1="24.2895936" y1="108.659975" x2="96.9133049" y2="80.0723197" id="Line-7"></line>
                    <line x1="32.2895936" y1="111.655726" x2="104.913305" y2="83.0680704" id="Line-7-Copy"></line>
                    <line x1="36.2895936" y1="116.648643" x2="108.913305" y2="88.0609882" id="Line-7-Copy-2"></line>
                </g>
                <path d="M238.495821,142.946307 C236.58506,152.877207 233.400458,190.679078 235.94814,192.280836 C238.495821,193.882594 258.558814,194.523297 259.514195,192.280836 C260.469575,190.038375 267.157239,134.937901 264.291098,133.656494 C261.424956,132.375088 244.21685,132.716763 242.317344,133.656494 C240.417837,134.596226 239.769662,138.141417 241.043503,138.461768 C242.317344,138.78212 249.149079,139.743175 248.104205,137.180362 C247.059331,134.617549 256.807283,134.308551 256.807283,135.85698 C256.807283,137.405409 255.66808,136.891269 256.807283,138.141417 C257.946486,139.391565 260.469575,137.821065 262.061876,138.461768 C263.654177,139.102471 257.603433,188.436617 256.966513,190.038375 C256.329593,191.640133 246.457326,189.718024 245.501946,189.07732 C244.546565,188.436617 244.228105,185.553453 246.775787,184.91275 C249.323468,184.272046 252.18961,189.07732 248.049627,190.038375 C243.909645,190.99943 241.043503,190.679078 238.495821,189.07732" id="Line-4" stroke-opacity="0.56" stroke="#000000" stroke-width="1.5" stroke-linecap="square"></path>
                <g id="Polaroid-3*" transform="translate(566.000000, 133.834278) rotate(14.000000) translate(-566.000000, -133.834278) translate(538.000000, 103.876771)" stroke-linecap="square">
                    <g id="Group" transform="translate(14.249936, 9.781812)" stroke="#000000" stroke-opacity="0.56">
                        <path d="M3.82863942,17.1749667 C5.01222119,15.7271262 2.59557805,4.57219852 4.32851427,3.1931807 C6.06145048,1.81416288 11.0181294,7.91343746 12.7116005,9.78808095 C14.7950773,12.0944542 14.6234268,14.5627848 14.5733677,14.5617257 C14.4372462,14.558846 3.15052199,4.85155088 4.74125604,3.51752976 C5.8017454,2.62818235 9.07911595,6.30958101 14.5733677,14.5617257 C20.661061,14.6905159 23.3247199,15.062485 22.5643444,15.677633 C21.4237812,16.6003549 21.4335081,17.0386467 18.6887304,17.4893442 C15.9439527,17.9400416 14.733641,18.1421111 12.9008089,18.3137474 C11.0679768,18.4853838 7.88402886,10.3697869 6.78320631,10.3464981 C6.04932461,10.3309722 5.47690486,12.931471 5.06594704,18.1479945 C4.42741865,18.4090312 4.1122046,18.4023626 4.12030489,18.1279886" id="Shoe-One" transform="translate(13.184793, 10.665508) rotate(15.000000) translate(-13.184793, -10.665508) "></path>
                        <path d="M30.3496444,33.7793378 C32.2445971,31.8703254 31.3858003,20.8681012 28.8775987,19.3618335 C26.3693971,17.8555657 20.590734,23.1776368 18.5108269,25.0986831 C15.0721524,28.2747159 15.0549966,30.5500876 15.1251972,30.5515032 C15.3160879,30.5553525 31.2063389,21.7847759 28.9002004,20.3319446 C27.3627748,19.3633904 22.3817603,22.3319801 15.1251972,30.5515032 C6.58809228,30.3793537 -0.368237392,29.369691 2.86472462,31.382107 C6.09768662,33.3945231 5.63333996,32.7577925 9.51052698,33.35912 C13.387714,33.9604474 15.0975461,34.2290351 17.6794214,34.4974565 C20.2612967,34.7658778 24.2828256,26.57127 25.8265692,26.6023994 C26.8557316,26.6231523 27.8024339,29.3286901 28.6666762,34.7190129 C29.5772482,35.0196791 30.01929,35.0285928 29.9928019,34.745754" id="Shoe-Two" transform="translate(16.717522, 27.024129) rotate(15.000000) translate(-16.717522, -27.024129) "></path>
                    </g>
                    <path d="M1.97485711,1.51929743 C-0.206221024,2.96143237 -0.206221024,21.9345202 1.97485711,58.4385609 L50.7047344,58.4385609 C51.3934959,55.8246913 51.3934959,53.3910886 50.7047344,51.1377527 C49.6715921,47.757749 6.62399735,53.4361553 6.62399735,50.1913517 C6.62399735,46.9465481 6.62399735,16.391314 6.62399735,8.41450511 C6.62399735,0.437696222 44.1615,4.76410105 50.7047344,6.92730346 C55.0668907,8.3694384 56.3495609,21.2423371 54.5527452,45.5459996" id="Line-5" stroke="#979797" stroke-width="2"></path>
                </g>
                <g id="Polaroid-2*" transform="translate(531.000000, 35.456799) rotate(9.000000) translate(-531.000000, -35.456799) translate(503.000000, 5.000000)" stroke="#000000" stroke-linecap="square" stroke-opacity="0.56">
                    <path d="M1.97359988,1.50520793 C-0.20747826,2.97264349 -0.20747826,22.2785925 1.97359988,59.423055 L50.7034772,59.423055 C51.3922387,56.763328 51.3922387,54.2870305 50.7034772,51.9941625 C49.6703349,48.5548604 6.62274011,54.3328879 6.62274011,51.0311579 C6.62274011,47.7294279 6.62274011,16.6381371 6.62274011,8.52138418 C6.62274011,0.404631268 44.1602428,4.80693793 50.7034772,7.00809126 C55.0656334,8.47552682 56.3483037,21.5742658 54.5514879,46.3043084" id="Line-5" stroke-width="2"></path>
                    <path d="M10.3377913,42.0397242 C10.3377913,30.1010919 10.3377913,22.5904031 10.3377913,19.5076576 C10.3377913,14.8835395 19.1082831,14.8835395 19.1082831,14.8835395 C19.1082831,14.8835395 18.707489,22.2364432 19.1082831,23.1228773 C19.5090771,24.0093114 21.234196,19.4504086 21.7312339,20.6847059 C22.2282718,21.9190032 19.6000864,23.5432517 20.6656601,26.9903215 C21.7312339,30.4373914 27.8377913,39.0130287 27.9607421,37.0793066 C28.0836929,35.1455844 21.7312339,17.237636 21.7312339,14.8835395 C21.7312339,12.529443 24.2722175,13.7905661 25.9115618,13.7905661 C27.550906,13.7905661 28.6164798,33.2959372 29.1082831,35.1455844 C29.6000864,36.9952317 32.4689388,21.8617541 32.4689388,20.6847059 C32.4689388,19.5076576 29.1082831,20.3696936 29.1082831,19.5076576 C29.1082831,18.932967 30.2285017,18.232343 32.4689388,17.4057858 L31.403365,16.1446626 C30.0918896,14.9115645 29.3268623,14.1268656 29.1082831,13.7905661 C28.7804142,13.2861169 34.1082831,12.2772184 35.6656601,12.529443 C37.2230372,12.7816676 45.3377913,35.9022583 45.3377913,37.0793066 C45.3377913,38.2563548 40.7476273,40.9467508 39.845988,39.0130287 C38.9443487,37.0793066 35.6656601,25.6366107 35.6656601,26.9903215 C35.6656601,28.3440324 39.845988,41.535275 39.845988,43.7212217 C39.845988,45.9071685 22.7148405,49.0179389 21.7312339,48.3453399 C21.0754962,47.8969405 19.1629279,41.1429255 15.993529,28.0832949 C17.3050044,37.8920304 17.7968077,43.1046726 17.4689388,43.7212217 C17.14107,44.3377708 15.5017257,44.8422201 12.550906,45.2345695" id="Line"></path>
                </g>
                <g id="Polaroid-1*" transform="translate(444.000000, 65.936261) rotate(-6.000000) translate(-444.000000, -65.936261) translate(416.000000, 34.980170)" stroke="#4C4B46" stroke-linecap="square">
                    <path d="M1.9772265,1.46303484 C-0.203851635,2.95577101 -0.203851635,22.5945812 1.9772265,60.3794654 L50.7071038,60.3794654 C51.3958653,57.6738811 51.3958653,55.1548888 50.7071038,52.8224886 C49.6739615,49.3238882 6.62636674,55.2015369 6.62636674,51.8428805 C6.62636674,48.4842241 6.62636674,16.8568766 6.62636674,8.60017964 C6.62636674,0.343482714 44.1638694,4.82169122 50.7071038,7.06079547 C55.0692601,8.55353163 56.3519303,21.878111 54.5551146,47.0345335" id="Line-5" stroke-width="2"></path>
                    <path d="M25.0857878,19.6370218 C28.4762006,18.1681151 23.7975721,15.3508397 31.5925442,16.5821593 C39.3875164,17.813479 45.7163376,21.845223 47.4282973,24.3045431 C49.1402569,26.7638632 44.7548398,23.7444157 42.8439321,23.7506289 C40.9330245,23.756842 37.1079404,24.7947312 37.0948904,28.8887008 C37.0818404,32.9826703 41.2493878,36.1677743 44.334581,35.6910007 C47.4197742,35.2142271 48.4324485,29.6208678 48.3746851,27.1455657 C48.3169217,24.6702636 44.7898585,22.469766 41.8921047,22.6160838 C38.9943509,22.7624015 36.7724593,27.2008176 36.3341537,27.7535344 C35.8958481,28.3062512 35.9426474,25.9025547 34.6197764,26.0526487 C33.2969055,26.2027428 32.6998028,28.902991 31.9390661,27.7678247 C31.1783295,26.6326583 28.1829294,22.8374391 24.591165,23.8099762 C20.9994006,24.7825133 19.1311625,27.028692 19.5097049,30.4627307 C19.8882472,33.8967694 23.6715217,37.2793334 26.7499999,37.075422 C29.8284781,36.8715107 31.6653511,32.3951913 31.5508406,29.6651534 C31.4363301,26.9351154 28.2925322,25.5508734 26.2148048,25.1319436 C24.1370775,24.7130137 21.5984094,26.9637434 19.5199797,27.2393843 C17.4415499,27.5150253 14.7451282,26.4964828 10.5453621,25.1828915 C6.34559613,23.8693002 7.29017074,27.2791486 4.80417761,27.8560515" id="Sunglasses" transform="translate(26.590591, 26.681428) rotate(-9.000000) translate(-26.590591, -26.681428) "></path>
                </g>
                <g id="Bubble" transform="translate(264.000000, 31.961756)">
                    <path d="M62.8560457,84.7965313 C95.5203497,84.7965313 122,65.8141812 122,42.3982657 C122,18.9823501 95.5203497,0 62.8560457,0 C30.1917416,0 -12.9873781,32.8952061 3.71209133,42.3982657 C63.211873,76.2574233 11.3660148,99.416623 11.3660148,106.726669 C11.3660148,117.311798 49.0343497,84.7965313 62.8560457,84.7965313 Z" id="Speech-Bubble" stroke-opacity="0.7" stroke="#4C4B46" stroke-width="2"></path>
                    <mask id="mask-2" fill="white">
                        <use xlink:href="#path-1"></use>
                    </mask>
                    <use id="Shape" fill-opacity="0.374781469" fill="#000000" fill-rule="nonzero" xlink:href="#path-1"></use>
                    <path d="M93.1204005,59.4244277 L91.4941083,57.9308229 C85.7180207,52.6465714 81.9046904,49.1614447 81.8935826,44.8964806 C81.8845729,41.4213247 84.585241,38.6979419 88.0314874,38.7069519 C89.9783928,38.712077 91.8493499,39.6308952 93.0727167,41.0783124 C94.2885762,39.6372883 96.1547825,38.7282648 98.1016879,38.7333675 C101.547934,38.7423998 104.262796,41.4799763 104.271853,44.9551322 C104.282914,49.2200963 100.487648,52.6852814 94.73898,57.9506104 L93.1204005,59.4244277 Z" id="Path" fill="#86837D" transform="translate(93.082718, 49.065690) rotate(16.000000) translate(-93.082718, -49.065690) "></path>
                    <path d="M56.5334928,67.4938001 L56.5334928,61.1839098 C56.5334928,57.3096371 54.4841357,54.0663534 50.9102571,53.2082083 L50.9102571,52.3500632 C50.9102571,51.3026214 50.0730197,50.4570961 49.0358451,50.4570961 C47.9986706,50.4570961 47.1614332,51.3026214 47.1614332,52.3500632 L47.1614332,53.2082083 C43.5750585,54.0663534 41.5381975,57.2970173 41.5381975,61.1839098 L41.5381975,67.4938001 L39.0389817,70.0177563 L39.0389817,71.2797344 L59.0327086,71.2797344 L59.0327086,70.0177563 L56.5334928,67.4938001 Z M50.2854531,67.4938001 L47.7862372,67.4938001 L47.7862372,64.969844 L50.2854531,64.969844 L50.2854531,67.4938001 Z M50.2854531,62.4458878 L47.7862372,62.4458878 L47.7862372,57.3979755 L50.2854531,57.3979755 L50.2854531,62.4458878 Z M49.0358451,75.0656686 C50.4104139,75.0656686 51.535061,73.9298883 51.535061,72.5417124 L46.5366293,72.5417124 C46.5366293,73.9298883 47.6487803,75.0656686 49.0358451,75.0656686 Z" id="Shape" fill-opacity="0.646512681" fill="#000000" fill-rule="nonzero" transform="translate(49.035845, 62.761382) rotate(-11.000000) translate(-49.035845, -62.761382) "></path>
                </g>
            </g>
        </g>
    </g>
</svg>