<?xml version="1.0" encoding="UTF-8"?>
<svg width="503px" height="125px" viewBox="0 0 503 125" version="1.1" xmlns="http://www.w3.org/2000/svg" xmlns:xlink="http://www.w3.org/1999/xlink">
    <!-- Generator: Sketch 61.2 (89653) - https://sketch.com -->
    <title>Voile Ads Title Logo</title>
    <desc>Created with Sketch.</desc>
    <defs>
        <path d="M93.6902877,29.09195 C93.6902877,27.9806 93.6902877,26.8708 93.6840417,25.75945 C93.6777957,24.8248 93.6668651,23.8886 93.6418811,22.95395 C93.5872284,20.9157 93.465431,18.8604 93.1016004,16.8454 C92.7315238,14.7994 92.1272214,12.896 91.173142,11.03755 C90.2362391,9.2101 89.0135809,7.54075 87.5535739,6.0915 C86.0935669,4.6438 84.4118262,3.4286 82.5708121,2.4986 C80.7001293,1.5531 78.7826014,0.95325 76.7229766,0.5859 C74.6914589,0.2232 72.6209035,0.10385 70.5675247,0.04805 C69.6243758,0.02325 68.6827884,0.0124 67.7396395,0.0062 C66.6216021,0 65.5020032,0 64.3824042,0 L29.3078835,0 C28.1898461,0 27.0702471,0 25.9522097,0.0062 C25.0090608,0.0124 24.0659119,0.02325 23.1243245,0.04805 C21.0709457,0.10385 18.9988288,0.2232 16.9688726,0.5859 C14.9092478,0.95325 12.9917199,1.5531 11.1210372,2.4986 C9.280023,3.4286 7.59672083,4.6438 6.13827535,6.0915 C4.67826837,7.54075 3.45561011,9.2101 2.51870723,11.03755 C1.5646278,12.896 0.960325449,14.7994 0.590248813,16.8454 C0.226418195,18.8604 0.104620821,20.9157 0.0499681535,22.95395 C0.0249840767,23.8886 0.0124920384,24.8248 0.00780752398,25.75945 C0,26.8708 0,27.9806 0,29.09195 L0,63.90805 C0,65.0194 0,66.1292 0.00780752398,67.24055 C0.0124920384,68.1752 0.0249840767,69.1114 0.0499681535,70.04605 C0.104620821,72.0843 0.226418195,74.1396 0.590248813,76.1546 C0.960325449,78.2006 1.5646278,80.10555 2.51870723,81.964 C3.45561011,83.7899 4.67826837,85.45925 6.13827535,86.90695 C7.59672083,88.35775 9.280023,89.5714 11.1210372,90.5014 C12.9917199,91.4469 14.9092478,92.04675 16.9688726,92.4141 C18.9988288,92.77525 21.0709457,92.8977 23.1243245,92.95195 C24.0659119,92.97675 25.0090608,92.9876 25.9522097,92.9938 C27.0702471,93 28.1898461,93 29.3078835,93 L64.3824042,93 C65.5020032,93 66.6216021,93 67.7396395,92.9938 C68.6827884,92.9876 69.6243758,92.97675 70.5675247,92.95195 C72.6209035,92.8977 74.6914589,92.77525 76.7229766,92.4141 C78.7826014,92.04675 80.7001293,91.4469 82.5708121,90.5014 C84.4118262,89.5714 86.0935669,88.35775 87.5535739,86.90695 C89.0135809,85.45925 90.2362391,83.7899 91.173142,81.964 C92.1272214,80.10555 92.7315238,78.2006 93.1016004,76.1546 C93.465431,74.1396 93.5872284,72.0843 93.6418811,70.04605 C93.6668651,69.1114 93.6777957,68.1752 93.6840417,67.24055 C93.6902877,66.1292 93.6902877,65.0194 93.6902877,63.90805 L93.6902877,29.09195 Z" id="path-1"></path>
        <filter x="-24.5%" y="-22.6%" width="157.6%" height="158.1%" filterUnits="objectBoundingBox" id="filter-3">
            <feMorphology radius="0.5" operator="dilate" in="SourceAlpha" result="shadowSpreadOuter1"></feMorphology>
            <feOffset dx="4" dy="6" in="shadowSpreadOuter1" result="shadowOffsetOuter1"></feOffset>
            <feGaussianBlur stdDeviation="7.5" in="shadowOffsetOuter1" result="shadowBlurOuter1"></feGaussianBlur>
            <feColorMatrix values="0 0 0 0 0   0 0 0 0 0   0 0 0 0 0  0 0 0 0.15 0" type="matrix" in="shadowBlurOuter1"></feColorMatrix>
        </filter>
    </defs>
    <g id="WP-Voile-Ads-Plugin" stroke="none" stroke-width="1" fill="none" fill-rule="evenodd">
        <g id="Artboard" transform="translate(-632.000000, -54.000000)">
            <g id="Voile-Ads-Title-Logo" transform="translate(644.000000, 64.000000)">
                <g id="Group" transform="translate(122.000000, 0.000000)" fill="#007BFF" font-family="CaslonGraphiqueEF" font-size="82" font-weight="normal">
                    <text id="voile-ads">
                        <tspan x="0" y="73">voile ads </tspan>
                    </text>
                </g>
                <g id="App-Icon">
                    <mask id="mask-2" fill="white">
                        <use xlink:href="#path-1"></use>
                    </mask>
                    <g id="App-Icon-Mask-Copy-11">
                        <use fill="black" fill-opacity="1" filter="url(#filter-3)" xlink:href="#path-1"></use>
                        <use fill="#FFFFFF" fill-rule="evenodd" xlink:href="#path-1"></use>
                    </g>
                    <path d="M56.1571735,23.3058747 L54.4250611,18.9946017 L69.1581925,13.0058963 L69.5937061,13.000411 C72.9617261,12.9616574 74.250221,15.6679684 73.5594696,19.2720368 C73.0546635,21.9059164 71.5228085,25.6243626 68.9582874,30.5401727 C64.1454329,39.7657075 54.38318,55.8111235 47.1083275,65.8684059 C42.3767409,72.4096936 38.6220123,76.652902 35.8286677,78.2613704 C33.5107012,79.5961058 31.1251978,79.4189098 29.8442429,77.1088818 C28.9609778,75.5160333 28.844064,73.0837409 29.3066335,69.5265969 C30.7663385,58.3015136 32.8201569,48.8797214 35.3210295,40.6242092 C36.3205969,37.3245846 38.0925109,32.320457 38.7379163,30.4793531 C38.437453,30.3823671 38.2105822,30.2859914 37.9318144,30.1325754 C37.1909628,29.7248577 36.6146028,29.1022662 36.3138175,28.2528049 C36.1746282,27.859714 35.613099,25.9084193 35.5633007,25.744624 C35.4627694,25.4139596 35.3675728,25.1163855 35.2735292,24.841198 C35.0666421,24.2358113 34.8709087,23.7574286 34.6939194,23.426593 C34.6574914,23.3585003 34.6242644,23.301238 34.5958191,23.2558086 C31.932846,22.0218172 27.9253928,22.3149324 26.0958888,23.4116002 C26.116232,23.3994058 25.8857128,23.7195714 25.6353561,24.2670786 C25.3086936,24.9814598 25.0174551,25.9062936 24.8223693,26.8573959 C24.6273736,27.808059 24.5437965,28.710905 24.5834483,29.3869716 C24.5876768,29.4590675 24.5932112,29.5266351 24.5997904,29.5892863 C24.9235319,29.5328471 25.3355633,29.4015167 25.7928747,29.203154 C26.7402155,28.792237 27.8033527,28.102963 28.0105703,27.8783543 L29.5828685,26.174098 L32.9715537,29.3370937 L31.3992554,31.04135 C29.2619024,33.3580843 24.2135257,35.5478601 21.5208129,33.3398159 C18.4762461,30.8432489 20.4120601,21.4055688 23.7292441,19.4171344 C26.9264583,17.500614 32.7830024,17.1108489 36.9070172,19.2157864 C38.2217208,19.8868239 38.9059199,21.1657565 39.645401,23.3296038 C39.7581178,23.6594324 39.8691279,24.0064377 39.9841562,24.3847853 C40.0467597,24.590699 40.3184705,25.5314351 40.5033805,26.1539301 C40.5952358,26.1792772 40.602596,26.1813692 40.7231298,26.2156281 C42.7098674,26.7890554 43.9346694,28.1184234 43.5438178,30.5201861 C43.4414116,31.1494664 40.8608927,38.2901529 39.7432442,41.9795694 C37.3155704,49.9934485 35.3164985,59.1640934 33.8905382,70.1296818 C33.6515198,71.9677255 33.6182997,73.3183935 33.7070829,74.1203293 C35.7492518,72.8383569 39.1571844,68.9569283 43.3701163,63.1326664 C50.5059147,53.2676225 60.1517919,37.4134836 64.8646999,28.3795316 C67.2349209,23.8361663 68.6219268,20.4693287 69.0201003,18.391816 C69.0429106,18.2728009 69.0619959,18.1601364 69.0775173,18.0540291 L56.1571735,23.3058747 Z" id="V-App-Logo" fill="#0078FF" fill-rule="nonzero" mask="url(#mask-2)"></path>
                </g>
            </g>
        </g>
    </g>
</svg>