<?xml version="1.0" encoding="UTF-8"?>
<svg width="36px" height="41px" viewBox="0 0 36 41" version="1.1" xmlns="http://www.w3.org/2000/svg" xmlns:xlink="http://www.w3.org/1999/xlink">
    <!-- Generator: Sketch 61.2 (89653) - https://sketch.com -->
    <title>thumbs-down</title>
    <desc>Created with Sketch.</desc>
    <g id="WP-Voile-Ads-Plugin" stroke="none" stroke-width="1" fill="none" fill-rule="evenodd" stroke-linecap="square">
        <g id="Pick-the-right-frame." transform="translate(-451.000000, -1349.000000)" stroke="#000000" stroke-width="2">
            <g id="Polaroid-Report-Copy" transform="translate(76.000000, 825.000000)">
                <path d="M410,549.962423 C407.371134,549.962423 405.268041,549.962423 403.690722,549.962423 C401.324742,549.962423 399.731352,546.993542 398.082474,548.695859 C396.433596,550.398176 397.165292,552.570636 400.933333,550.628571 C403.445361,549.333862 401.969301,547.113456 396.505155,543.967354 C392.854801,538.127952 390.693289,534.215677 390.020619,532.230528 C388.230465,526.947526 391.42268,526.488772 390.020619,525.306645 C388.437267,523.971667 385.051123,527.193899 383.974227,531.132839 C382.89733,535.07178 387.566385,536.725373 385.639175,540.167662 C383.711966,543.609952 377.57732,537.127909 376.78866,543.967354 C376,550.806799 376,545.909419 376,550.806799 C376,555.70418 376.78866,551.82005 376.78866,556.295243 C376.78866,560.770436 379.06701,557.730682 377.927835,560.432685 C376.78866,563.134688 378.436419,563.648342 384.5,563.979064 C390.563581,564.309786 393.262887,560.601561 396.505155,561.361499 C398.666667,561.868124 400.682131,562.431042 402.551546,563.050251" id="thumbs-down" transform="translate(393.000000, 544.500000) scale(1, -1) translate(-393.000000, -544.500000) "></path>
            </g>
        </g>
    </g>
</svg>