<?xml version="1.0" encoding="UTF-8"?>
<svg width="36px" height="41px" viewBox="0 0 36 41" version="1.1" xmlns="http://www.w3.org/2000/svg" xmlns:xlink="http://www.w3.org/1999/xlink">
    <!-- Generator: Sketch 61.2 (89653) - https://sketch.com -->
    <title>thumbs-up</title>
    <desc>Created with Sketch.</desc>
    <g id="WP-Voile-Ads-Plugin" stroke="none" stroke-width="1" fill="none" fill-rule="evenodd" stroke-linecap="square">
        <g id="Pick-the-right-frame." transform="translate(-394.000000, -1343.000000)" stroke="#000000" stroke-width="2">
            <g id="Polaroid-Report-Copy" transform="translate(76.000000, 825.000000)">
                <path d="M353,543.962423 C350.371134,543.962423 348.268041,543.962423 346.690722,543.962423 C344.324742,543.962423 342.731352,540.993542 341.082474,542.695859 C339.433596,544.398176 339.031959,546.570636 342.8,544.628571 C345.312027,543.333862 344.213746,541.113456 339.505155,537.967354 C335.854801,532.127952 333.693289,528.215677 333.020619,526.230528 C331.230465,520.947526 334.42268,520.488772 333.020619,519.306645 C331.437267,517.971667 328.051123,521.193899 326.974227,525.132839 C325.89733,529.07178 330.566385,530.725373 328.639175,534.167662 C326.711966,537.609952 320.57732,531.127909 319.78866,537.967354 C319,544.806799 319,539.909419 319,544.806799 C319,549.70418 319.78866,545.82005 319.78866,550.295243 C319.78866,554.770436 322.06701,551.730682 320.927835,554.432685 C319.78866,557.134688 321.436419,557.648342 327.5,557.979064 C333.563581,558.309786 336.262887,554.601561 339.505155,555.361499 C341.666667,555.868124 343.682131,556.431042 345.551546,557.050251" id="thumbs-up" transform="translate(336.000000, 538.500000) scale(-1, 1) translate(-336.000000, -538.500000) "></path>
            </g>
        </g>
    </g>
</svg>